<svg xmlns="http://www.w3.org/2000/svg" width="1000" height="1000"><rect width="1000" height="1000" x="0" y="0" fill="#FFFFFF" id="backgorund"/><g id="viz"><g transform="translate(0,0)"><g transform="translate(50,20)"><g><path fill="#3d99c7" d="M0,940C30,940,60,940,90,940C120,940,150,940,180,940C210,940,240,940,270,940C300,940,330,940,360,940C390,940,420,940,450,940C480,940,510,940,540,940C570,940,600,940,630,940C660,940,690,940,720,940C750,940,780,294.21999999999997,810,294.21999999999997C840,294.21999999999997,870,617.11,900,940L900,940C870,940,840,940,810,940C780,940,750,940,720,940C690,940,660,940,630,940C600,940,570,940,540,940C510,940,480,940,450,940C420,940,390,940,360,940C330,940,300,940,270,940C240,940,210,940,180,940C150,940,120,940,90,940C60,940,30,940,0,940Z"><title>FDI</title></path><path fill="#f35fc6" d="M0,686.1999999999999C30,686.1999999999999,60,686.1999999999999,90,686.1999999999999C120,686.1999999999999,150,679.15,180,679.15C210,679.15,240,686.1999999999999,270,686.1999999999999C300,686.1999999999999,330,672.1,360,672.1C390,672.1,420,940,450,940C480,940,510,940,540,940C570,940,600,940,630,940C660,940,690,940,720,940C750,940,780,294.21999999999997,810,294.21999999999997C840,294.21999999999997,870,617.11,900,940L900,940C870,617.11,840,294.21999999999997,810,294.21999999999997C780,294.21999999999997,750,940,720,940C690,940,660,940,630,940C600,940,570,940,540,940C510,940,480,940,450,940C420,940,390,940,360,940C330,940,300,940,270,940C240,940,210,940,180,940C150,940,120,940,90,940C60,940,30,940,0,940Z"><title>Pellegrini</title></path><path fill="#be1740" d="M0,686.1999999999999C30,686.1999999999999,60,686.1999999999999,90,686.1999999999999C120,686.1999999999999,150,679.15,180,679.15C210,679.15,240,686.1999999999999,270,686.1999999999999C300,686.1999999999999,330,672.1,360,672.1C390,672.1,420,784.1166666666667,450,817.8C480,851.4833333333332,510,874.1999999999999,540,874.1999999999999C570,874.1999999999999,600,874.1999999999999,630,874.1999999999999C660,874.1999999999999,690,883.5999999999999,720,883.5999999999999C750,883.5999999999999,780,275.42,810,275.42C840,275.42,870,607.71,900,940L900,940C870,617.11,840,294.21999999999997,810,294.21999999999997C780,294.21999999999997,750,940,720,940C690,940,660,940,630,940C600,940,570,940,540,940C510,940,480,940,450,940C420,940,390,672.1,360,672.1C330,672.1,300,686.1999999999999,270,686.1999999999999C240,686.1999999999999,210,679.15,180,679.15C150,679.15,120,686.1999999999999,90,686.1999999999999C60,686.1999999999999,30,686.1999999999999,0,686.1999999999999Z"><title>UBA - FCE</title></path><path fill="#ecde30" d="M0,686.1999999999999C30,686.1999999999999,60,686.1999999999999,90,686.1999999999999C120,686.1999999999999,150,679.15,180,679.15C210,679.15,240,686.1999999999999,270,686.1999999999999C300,686.1999999999999,330,672.1,360,672.1C390,672.1,420,784.1166666666667,450,817.8C480,851.4833333333332,510,874.1999999999999,540,874.1999999999999C570,874.1999999999999,600,874.1999999999999,630,874.1999999999999C660,874.1999999999999,690,883.5999999999999,720,883.5999999999999C750,883.5999999999999,780,162.62000000000003,810,162.62000000000003C840,162.62000000000003,870,551.31,900,940L900,940C870,607.71,840,275.42,810,275.42C780,275.42,750,883.5999999999999,720,883.5999999999999C690,883.5999999999999,660,874.1999999999999,630,874.1999999999999C600,874.1999999999999,570,874.1999999999999,540,874.1999999999999C510,874.1999999999999,480,851.4833333333332,450,817.8C420,784.1166666666667,390,672.1,360,672.1C330,672.1,300,686.1999999999999,270,686.1999999999999C240,686.1999999999999,210,679.15,180,679.15C150,679.15,120,686.1999999999999,90,686.1999999999999C60,686.1999999999999,30,686.1999999999999,0,686.1999999999999Z"><title>ITBA</title></path><path fill="#2736d3" d="M0,686.1999999999999C30,658.94,60,631.6800000000001,90,626.98C120,622.28,150,619.93,180,619.93C210,619.93,240,638.26,270,638.26C300,638.26,330,531.0999999999999,360,531.0999999999999C390,531.0999999999999,420,693.8766666666668,450,741.6600000000001C480,789.4433333333334,510,817.8,540,817.8C570,817.8,600,786.78,630,786.78C660,786.78,690,813.1,720,813.1C750,813.1,780,97.75999999999998,810,97.75999999999998C840,97.75999999999998,870,518.8799999999999,900,940L900,940C870,551.31,840,162.62000000000003,810,162.62000000000003C780,162.62000000000003,750,883.5999999999999,720,883.5999999999999C690,883.5999999999999,660,874.1999999999999,630,874.1999999999999C600,874.1999999999999,570,874.1999999999999,540,874.1999999999999C510,874.1999999999999,480,851.4833333333332,450,817.8C420,784.1166666666667,390,672.1,360,672.1C330,672.1,300,686.1999999999999,270,686.1999999999999C240,686.1999999999999,210,679.15,180,679.15C150,679.15,120,686.1999999999999,90,686.1999999999999C60,686.1999999999999,30,686.1999999999999,0,686.1999999999999Z"><title>Viajes</title></path><path fill="#e25312" d="M0,686.1999999999999C30,655.8458333333332,60,625.4916666666666,90,619.2249999999999C120,612.9583333333333,150,609.8249999999999,180,609.8249999999999C210,609.8249999999999,240,634.735,270,634.735C300,634.735,330,524.755,360,524.755C390,524.755,420,686.9833333333333,450,735.315C480,783.6466666666668,510,814.745,540,814.745C570,814.745,600,786.78,630,786.78C660,786.78,690,810.28,720,810.28C750,810.28,780,92.825,810,92.825C840,92.825,870,516.4125000000001,900,940L900,940C870,518.8799999999999,840,97.75999999999998,810,97.75999999999998C780,97.75999999999998,750,813.1,720,813.1C690,813.1,660,786.78,630,786.78C600,786.78,570,817.8,540,817.8C510,817.8,480,789.4433333333334,450,741.6600000000001C420,693.8766666666668,390,531.0999999999999,360,531.0999999999999C330,531.0999999999999,300,638.26,270,638.26C240,638.26,210,619.93,180,619.93C150,619.93,120,622.28,90,626.98C60,631.6800000000001,30,658.94,0,686.1999999999999Z"><title>Museos</title></path><path fill="#429e6f" d="M0,686.1999999999999C30,653.4958333333333,60,620.7916666666665,90,609.8249999999999C120,598.8583333333333,150,593.375,180,593.375C210,593.375,240,630.035,270,630.035C300,630.035,330,517.705,360,517.705C390,517.705,420,677.5833333333333,450,725.915C480,774.2466666666667,510,807.695,540,807.695C570,807.695,600,765.63,630,765.63C660,765.63,690,779.73,720,779.73C750,779.73,780,57.575000000000024,810,57.575000000000024C840,57.575000000000024,870,494.0875000000001,900,930.6L900,940C870,516.4125000000001,840,92.825,810,92.825C780,92.825,750,810.28,720,810.28C690,810.28,660,786.78,630,786.78C600,786.78,570,814.745,540,814.745C510,814.745,480,783.6466666666668,450,735.315C420,686.9833333333333,390,524.755,360,524.755C330,524.755,300,634.735,270,634.735C240,634.735,210,609.8249999999999,180,609.8249999999999C150,609.8249999999999,120,612.9583333333333,90,619.2249999999999C60,625.4916666666666,30,655.8458333333332,0,686.1999999999999Z"><title>Deportes</title></path><path fill="#623296" d="M0,686.1999999999999C30,635.7925,60,585.385,90,585.385C120,585.385,150,585.855,180,586.795C210,587.7349999999999,240,622.0450000000001,270,622.0450000000001C300,622.0450000000001,330,507.13,360,507.13C390,507.13,420,668.9275,450,718.395C480,767.8625,510,803.9350000000001,540,803.9350000000001C570,803.9350000000001,600,763.75,630,763.75C660,763.75,690,778.555,720,778.555C750,778.555,780,47.46999999999999,810,47.46999999999999C840,47.46999999999999,870,487.15500000000003,900,926.84L900,930.6C870,494.0875000000001,840,57.575000000000024,810,57.575000000000024C780,57.575000000000024,750,779.73,720,779.73C690,779.73,660,765.63,630,765.63C600,765.63,570,807.695,540,807.695C510,807.695,480,774.2466666666667,450,725.915C420,677.5833333333333,390,517.705,360,517.705C330,517.705,300,630.035,270,630.035C240,630.035,210,593.375,180,593.375C150,593.375,120,598.8583333333333,90,609.8249999999999C60,620.7916666666665,30,653.4958333333333,0,686.1999999999999Z"><title>Libros</title></path></g><g id="xAxis" transform="translate(0,940)" fill="none" font-size="12" font-family="sans-serif" text-anchor="middle"><path class="domain" stroke="currentColor" d="M0,0H900"/><g class="tick" opacity="1" transform="translate(0,0)"><line stroke="currentColor" y2="6"/><text fill="currentColor" y="9" dy="0.71em">2012</text></g><g class="tick" opacity="1" transform="translate(90,0)"><line stroke="currentColor" y2="6"/><text fill="currentColor" y="9" dy="0.71em">2013</text></g><g class="tick" opacity="1" transform="translate(180,0)"><line stroke="currentColor" y2="6"/><text fill="currentColor" y="9" dy="0.71em">2014</text></g><g class="tick" opacity="1" transform="translate(270,0)"><line stroke="currentColor" y2="6"/><text fill="currentColor" y="9" dy="0.71em">2015</text></g><g class="tick" opacity="1" transform="translate(360,0)"><line stroke="currentColor" y2="6"/><text fill="currentColor" y="9" dy="0.71em">2016</text></g><g class="tick" opacity="1" transform="translate(450,0)"><line stroke="currentColor" y2="6"/><text fill="currentColor" y="9" dy="0.71em">2017</text></g><g class="tick" opacity="1" transform="translate(540,0)"><line stroke="currentColor" y2="6"/><text fill="currentColor" y="9" dy="0.71em">2018</text></g><g class="tick" opacity="1" transform="translate(630,0)"><line stroke="currentColor" y2="6"/><text fill="currentColor" y="9" dy="0.71em">2019</text></g><g class="tick" opacity="1" transform="translate(720,0)"><line stroke="currentColor" y2="6"/><text fill="currentColor" y="9" dy="0.71em">2020</text></g><g class="tick" opacity="1" transform="translate(810,0)"><line stroke="currentColor" y2="6"/><text fill="currentColor" y="9" dy="0.71em">2021</text></g><g class="tick" opacity="1" transform="translate(900,0)"><line stroke="currentColor" y2="6"/><text fill="currentColor" y="9" dy="0.71em">2022</text></g></g><text y="936" x="937" text-anchor="end" style="font-family: Arial, sans-serif; font-size: 14px; fill: rgb(123, 123, 123); font-weight: bold;">Año</text><text y="100" x="4" text-anchor="start" dominant-baseline="hanging" style="font-family: Arial, sans-serif; font-size: 14px; fill: rgb(123, 123, 123); font-weight: bold;">Suma de Horas</text><g id="labels"><text x="810" y="617.11" text-anchor="middle" alignment-baseline="middle" style="font-family: Arial, sans-serif; font-size: 14px; fill: black; font-weight: bold; stroke-width: 2px; paint-order: stroke; stroke: white; stroke-linecap: round; stroke-linejoin: round;">FDI</text><text x="310" y="806.0500000000001" text-anchor="middle" alignment-baseline="middle" style="font-family: Arial, sans-serif; font-size: 14px; fill: black; font-weight: bold; stroke-width: 2px; paint-order: stroke; stroke: white; stroke-linecap: round; stroke-linejoin: round;">Pellegrini</text><text x="490" y="898.9000000000001" text-anchor="middle" alignment-baseline="middle" style="font-family: Arial, sans-serif; font-size: 14px; fill: black; font-weight: bold; stroke-width: 2px; paint-order: stroke; stroke: white; stroke-linecap: round; stroke-linejoin: round;">UBA - FCE</text><text x="812" y="239.01999999999998" text-anchor="middle" alignment-baseline="middle" style="font-family: Arial, sans-serif; font-size: 14px; fill: black; font-weight: bold; stroke-width: 2px; paint-order: stroke; stroke: white; stroke-linecap: round; stroke-linejoin: round;">ITBA</text><text x="360" y="601.6" text-anchor="middle" alignment-baseline="middle" style="font-family: Arial, sans-serif; font-size: 14px; fill: black; font-weight: bold; stroke-width: 2px; paint-order: stroke; stroke: white; stroke-linecap: round; stroke-linejoin: round;">Viajes</text><text x="167" y="616.8775" text-anchor="middle" alignment-baseline="middle" style="font-family: Arial, sans-serif; font-size: 14px; fill: black; font-weight: bold; stroke-width: 2px; paint-order: stroke; stroke: white; stroke-linecap: round; stroke-linejoin: round;">Museos</text><text x="689" y="787.19999999999996" text-anchor="middle" alignment-baseline="middle" style="font-family: Arial, sans-serif; font-size: 14px; fill: black; font-weight: bold; stroke-width: 2px; paint-order: stroke; stroke: white; stroke-linecap: round; stroke-linejoin: round;">Deportes</text><text x="90" y="597.605" text-anchor="middle" alignment-baseline="middle" style="font-family: Arial, sans-serif; font-size: 14px; fill: black; font-weight: bold; stroke-width: 2px; paint-order: stroke; stroke: white; stroke-linecap: round; stroke-linejoin: round;">Libros</text></g></g><text x="4" y="4" style="font-family: Arial, sans-serif; font-size: 14px; fill: black; font-weight: bold; dominant-baseline: hanging;"/></g></g></svg>