<svg xmlns="http://www.w3.org/2000/svg" width="805" height="500"><rect width="805" height="500" x="0" y="0" fill="#FFFFFF" id="backgorund"/><g id="viz"><g transform="translate(0,0)"><g transform="translate(10,20)"><g><path fill="#ff7f0e" d="M0,460C39.25,460,39.25,460,78.5,460C117.75,460,117.75,460,157,460C196.25,460,196.25,460,235.5,460C274.75,460,274.75,460,314,460C353.25,460,353.25,460,392.5,460C431.75,460,431.75,460,471,460C510.25,460,510.25,460,549.5,460C588.75,460,588.75,460,628,460C667.25,460,667.25,143.97999999999996,706.5,143.97999999999996C745.75,143.97999999999996,745.75,460,785,460L785,460C745.75,460,745.75,460,706.5,460C667.25,460,667.25,460,628,460C588.75,460,588.75,460,549.5,460C510.25,460,510.25,460,471,460C431.75,460,431.75,460,392.5,460C353.25,460,353.25,460,314,460C274.75,460,274.75,460,235.5,460C196.25,460,196.25,460,157,460C117.75,460,117.75,460,78.5,460C39.25,460,39.25,460,0,460Z"><title>FDI</title></path><path fill="#8c564b" d="M0,335.8C39.25,335.8,39.25,335.8,78.5,335.8C117.75,335.8,117.75,332.34999999999997,157,332.34999999999997C196.25,332.34999999999997,196.25,335.8,235.5,335.8C274.75,335.8,274.75,328.90000000000003,314,328.90000000000003C353.25,328.90000000000003,353.25,460,392.5,460C431.75,460,431.75,460,471,460C510.25,460,510.25,460,549.5,460C588.75,460,588.75,460,628,460C667.25,460,667.25,143.97999999999996,706.5,143.97999999999996C745.75,143.97999999999996,745.75,460,785,460L785,460C745.75,460,745.75,143.97999999999996,706.5,143.97999999999996C667.25,143.97999999999996,667.25,460,628,460C588.75,460,588.75,460,549.5,460C510.25,460,510.25,460,471,460C431.75,460,431.75,460,392.5,460C353.25,460,353.25,460,314,460C274.75,460,274.75,460,235.5,460C196.25,460,196.25,460,157,460C117.75,460,117.75,460,78.5,460C39.25,460,39.25,460,0,460Z"><title>Pellegrini</title></path><path fill="#e377c2" d="M0,335.8C39.25,335.8,39.25,335.8,78.5,335.8C117.75,335.8,117.75,332.34999999999997,157,332.34999999999997C196.25,332.34999999999997,196.25,335.8,235.5,335.8C274.75,335.8,274.75,328.90000000000003,314,328.90000000000003C353.25,328.90000000000003,353.25,400.2,392.5,400.2C431.75,400.2,431.75,427.79999999999995,471,427.79999999999995C510.25,427.79999999999995,510.25,427.79999999999995,549.5,427.79999999999995C588.75,427.79999999999995,588.75,432.4,628,432.4C667.25,432.4,667.25,134.78000000000003,706.5,134.78000000000003C745.75,134.78000000000003,745.75,460,785,460L785,460C745.75,460,745.75,143.97999999999996,706.5,143.97999999999996C667.25,143.97999999999996,667.25,460,628,460C588.75,460,588.75,460,549.5,460C510.25,460,510.25,460,471,460C431.75,460,431.75,460,392.5,460C353.25,460,353.25,328.90000000000003,314,328.90000000000003C274.75,328.90000000000003,274.75,335.8,235.5,335.8C196.25,335.8,196.25,332.34999999999997,157,332.34999999999997C117.75,332.34999999999997,117.75,335.8,78.5,335.8C39.25,335.8,39.25,335.8,0,335.8Z"><title>UBA - FCE</title></path><path fill="#2ca02c" d="M0,335.8C39.25,335.8,39.25,335.8,78.5,335.8C117.75,335.8,117.75,332.34999999999997,157,332.34999999999997C196.25,332.34999999999997,196.25,335.8,235.5,335.8C274.75,335.8,274.75,328.90000000000003,314,328.90000000000003C353.25,328.90000000000003,353.25,400.2,392.5,400.2C431.75,400.2,431.75,427.79999999999995,471,427.79999999999995C510.25,427.79999999999995,510.25,427.79999999999995,549.5,427.79999999999995C588.75,427.79999999999995,588.75,432.4,628,432.4C667.25,432.4,667.25,79.58000000000001,706.5,79.58000000000001C745.75,79.58000000000001,745.75,460,785,460L785,460C745.75,460,745.75,134.78000000000003,706.5,134.78000000000003C667.25,134.78000000000003,667.25,432.4,628,432.4C588.75,432.4,588.75,427.79999999999995,549.5,427.79999999999995C510.25,427.79999999999995,510.25,427.79999999999995,471,427.79999999999995C431.75,427.79999999999995,431.75,400.2,392.5,400.2C353.25,400.2,353.25,328.90000000000003,314,328.90000000000003C274.75,328.90000000000003,274.75,335.8,235.5,335.8C196.25,335.8,196.25,332.34999999999997,157,332.34999999999997C117.75,332.34999999999997,117.75,335.8,78.5,335.8C39.25,335.8,39.25,335.8,0,335.8Z"><title>ITBA</title></path><path fill="#7f7f7f" d="M0,335.8C39.25,335.8,39.25,306.82,78.5,306.82C117.75,306.82,117.75,303.37,157,303.37C196.25,303.37,196.25,312.34000000000003,235.5,312.34000000000003C274.75,312.34000000000003,274.75,259.9,314,259.9C353.25,259.9,353.25,362.94,392.5,362.94C431.75,362.94,431.75,400.2,471,400.2C510.25,400.2,510.25,385.02,549.5,385.02C588.75,385.02,588.75,397.9,628,397.9C667.25,397.9,667.25,47.83999999999999,706.5,47.83999999999999C745.75,47.83999999999999,745.75,460,785,460L785,460C745.75,460,745.75,79.58000000000001,706.5,79.58000000000001C667.25,79.58000000000001,667.25,432.4,628,432.4C588.75,432.4,588.75,427.79999999999995,549.5,427.79999999999995C510.25,427.79999999999995,510.25,427.79999999999995,471,427.79999999999995C431.75,427.79999999999995,431.75,400.2,392.5,400.2C353.25,400.2,353.25,328.90000000000003,314,328.90000000000003C274.75,328.90000000000003,274.75,335.8,235.5,335.8C196.25,335.8,196.25,332.34999999999997,157,332.34999999999997C117.75,332.34999999999997,117.75,335.8,78.5,335.8C39.25,335.8,39.25,335.8,0,335.8Z"><title>Viajes</title></path><path fill="#9467bd" d="M0,335.8C39.25,335.8,39.25,303.025,78.5,303.025C117.75,303.025,117.75,298.42499999999995,157,298.42499999999995C196.25,298.42499999999995,196.25,310.615,235.5,310.615C274.75,310.615,274.75,256.795,314,256.795C353.25,256.795,353.25,359.835,392.5,359.835C431.75,359.835,431.75,398.705,471,398.705C510.25,398.705,510.25,385.02,549.5,385.02C588.75,385.02,588.75,396.52,628,396.52C667.25,396.52,667.25,45.425000000000004,706.5,45.425000000000004C745.75,45.425000000000004,745.75,460,785,460L785,460C745.75,460,745.75,47.83999999999999,706.5,47.83999999999999C667.25,47.83999999999999,667.25,397.9,628,397.9C588.75,397.9,588.75,385.02,549.5,385.02C510.25,385.02,510.25,400.2,471,400.2C431.75,400.2,431.75,362.94,392.5,362.94C353.25,362.94,353.25,259.9,314,259.9C274.75,259.9,274.75,312.34000000000003,235.5,312.34000000000003C196.25,312.34000000000003,196.25,303.37,157,303.37C117.75,303.37,117.75,306.82,78.5,306.82C39.25,306.82,39.25,335.8,0,335.8Z"><title>Museos</title></path><path fill="#1f77b4" d="M0,335.8C39.25,335.8,39.25,303.025,78.5,303.025C117.75,303.025,117.75,298.42499999999995,157,298.42499999999995C196.25,298.42499999999995,196.25,256.565,235.5,256.565C274.75,256.565,274.75,256.795,314,256.795C353.25,256.795,353.25,359.835,392.5,359.835C431.75,359.835,431.75,398.705,471,398.705C510.25,398.705,510.25,385.02,549.5,385.02C588.75,385.02,588.75,396.52,628,396.52C667.25,396.52,667.25,45.425000000000004,706.5,45.425000000000004C745.75,45.425000000000004,745.75,460,785,460L785,460C745.75,460,745.75,45.425000000000004,706.5,45.425000000000004C667.25,45.425000000000004,667.25,396.52,628,396.52C588.75,396.52,588.75,385.02,549.5,385.02C510.25,385.02,510.25,398.705,471,398.705C431.75,398.705,431.75,359.835,392.5,359.835C353.25,359.835,353.25,256.795,314,256.795C274.75,256.795,274.75,310.615,235.5,310.615C196.25,310.615,196.25,298.42499999999995,157,298.42499999999995C117.75,298.42499999999995,117.75,303.025,78.5,303.025C39.25,303.025,39.25,335.8,0,335.8Z"><title>Deportes</title></path><path fill="#d62728" d="M0,335.8C39.25,335.8,39.25,291.06499999999994,78.5,291.06499999999994C117.75,291.06499999999994,117.75,295.20500000000004,157,295.20500000000004C196.25,295.20500000000004,196.25,252.655,235.5,252.655C274.75,252.655,274.75,251.61999999999998,314,251.61999999999998C353.25,251.61999999999998,353.25,356.155,392.5,356.155C431.75,356.155,431.75,396.865,471,396.865C510.25,396.865,510.25,384.09999999999997,549.5,384.09999999999997C588.75,384.09999999999997,588.75,395.945,628,395.945C667.25,395.945,667.25,40.47999999999998,706.5,40.47999999999998C745.75,40.47999999999998,745.75,458.16,785,458.16L785,460C745.75,460,745.75,45.425000000000004,706.5,45.425000000000004C667.25,45.425000000000004,667.25,396.52,628,396.52C588.75,396.52,588.75,385.02,549.5,385.02C510.25,385.02,510.25,398.705,471,398.705C431.75,398.705,431.75,359.835,392.5,359.835C353.25,359.835,353.25,256.795,314,256.795C274.75,256.795,274.75,256.565,235.5,256.565C196.25,256.565,196.25,298.42499999999995,157,298.42499999999995C117.75,298.42499999999995,117.75,303.025,78.5,303.025C39.25,303.025,39.25,335.8,0,335.8Z"><title>Libros</title></path></g><g id="xAxis" transform="translate(0,460)" fill="none" font-size="10" font-family="sans-serif" text-anchor="middle"><path class="domain" stroke="currentColor" d="M0,0H785"/><g class="tick" opacity="1" transform="translate(0,0)"><line stroke="currentColor" y2="6"/><text fill="currentColor" y="9" dy="0.71em">2,012</text></g><g class="tick" opacity="1" transform="translate(78.5,0)"><line stroke="currentColor" y2="6"/><text fill="currentColor" y="9" dy="0.71em">2,013</text></g><g class="tick" opacity="1" transform="translate(157,0)"><line stroke="currentColor" y2="6"/><text fill="currentColor" y="9" dy="0.71em">2,014</text></g><g class="tick" opacity="1" transform="translate(235.5,0)"><line stroke="currentColor" y2="6"/><text fill="currentColor" y="9" dy="0.71em">2,015</text></g><g class="tick" opacity="1" transform="translate(314,0)"><line stroke="currentColor" y2="6"/><text fill="currentColor" y="9" dy="0.71em">2,016</text></g><g class="tick" opacity="1" transform="translate(392.5,0)"><line stroke="currentColor" y2="6"/><text fill="currentColor" y="9" dy="0.71em">2,017</text></g><g class="tick" opacity="1" transform="translate(471,0)"><line stroke="currentColor" y2="6"/><text fill="currentColor" y="9" dy="0.71em">2,018</text></g><g class="tick" opacity="1" transform="translate(549.5,0)"><line stroke="currentColor" y2="6"/><text fill="currentColor" y="9" dy="0.71em">2,019</text></g><g class="tick" opacity="1" transform="translate(628,0)"><line stroke="currentColor" y2="6"/><text fill="currentColor" y="9" dy="0.71em">2,020</text></g><g class="tick" opacity="1" transform="translate(706.5,0)"><line stroke="currentColor" y2="6"/><text fill="currentColor" y="9" dy="0.71em">2,021</text></g><g class="tick" opacity="1" transform="translate(785,0)"><line stroke="currentColor" y2="6"/><text fill="currentColor" y="9" dy="0.71em">2,022</text></g></g><text y="456" x="785" text-anchor="end" style="font-family: Arial, sans-serif; font-size: 12px; fill: rgb(123, 123, 123); font-weight: bold;">Año</text><text x="4" text-anchor="start" dominant-baseline="hanging" style="font-family: Arial, sans-serif; font-size: 12px; fill: rgb(123, 123, 123); font-weight: bold;">Horas</text><g id="labels"><text x="706.5" y="301.99" text-anchor="middle" alignment-baseline="middle" style="font-family: Arial, sans-serif; font-size: 10px; fill: black; font-weight: bold;">FDI</text><text x="314" y="394.45000000000005" text-anchor="middle" alignment-baseline="middle" style="font-family: Arial, sans-serif; font-size: 10px; fill: black; font-weight: bold;">Pellegrini</text><text x="392.5" y="430.1" text-anchor="middle" alignment-baseline="middle" style="font-family: Arial, sans-serif; font-size: 10px; fill: black; font-weight: bold;">UBA - FCE</text><text x="706.5" y="107.17999999999999" text-anchor="middle" alignment-baseline="middle" style="font-family: Arial, sans-serif; font-size: 10px; fill: black; font-weight: bold;">ITBA</text><text x="314" y="294.40000000000003" text-anchor="middle" alignment-baseline="middle" style="font-family: Arial, sans-serif; font-size: 10px; fill: black; font-weight: bold;">Viajes</text><text x="157" y="300.89750000000004" text-anchor="middle" alignment-baseline="middle" style="font-family: Arial, sans-serif; font-size: 10px; fill: black; font-weight: bold;">Museos</text><text x="235.5" y="283.59000000000003" text-anchor="middle" alignment-baseline="middle" style="font-family: Arial, sans-serif; font-size: 10px; fill: black; font-weight: bold;">Deportes</text><text x="78.5" y="297.045" text-anchor="middle" alignment-baseline="middle" style="font-family: Arial, sans-serif; font-size: 10px; fill: black; font-weight: bold;">Libros</text></g></g><text x="4" y="4" style="font-family: Arial, sans-serif; font-size: 12px; fill: black; font-weight: bold; dominant-baseline: hanging;"/></g></g></svg>