<svg xmlns="http://www.w3.org/2000/svg" width="1440" height="650"><rect width="1440" height="650" x="0" y="0" fill="#FFFFFF" id="backgorund"/><g transform="translate(30,30)" id="viz"><g id="links"><path d="M0,334.3693575204276C315,334.3693575204276,315,127.13675431448097,630,127.13675431448097" fill="none" stroke="#ccc"/><path d="M0,334.3693575204276C315,334.3693575204276,315,375.6655893964291,630,375.6655893964291" fill="none" stroke="#ccc"/><path d="M0,334.3693575204276C315,334.3693575204276,315,541.6019607263743,630,541.6019607263743" fill="none" stroke="#ccc"/><path d="M630,127.13675431448097C945,127.13675431448097,945,48.39803927362581,1260,48.39803927362581" fill="none" stroke="#ccc"/><path d="M630,127.13675431448097C945,127.13675431448097,945,138.60134902576488,1260,138.60134902576488" fill="none" stroke="#ccc"/><path d="M630,127.13675431448097C945,127.13675431448097,945,205.87546935533612,1260,205.87546935533612" fill="none" stroke="#ccc"/><path d="M630,375.6655893964291C945,375.6655893964291,945,280.04214680714875,1260,280.04214680714875" fill="none" stroke="#ccc"/><path d="M630,375.6655893964291C945,375.6655893964291,945,355.69801456069746,1260,355.69801456069746" fill="none" stroke="#ccc"/><path d="M630,375.6655893964291C945,375.6655893964291,945,416.01509861608093,1260,416.01509861608093" fill="none" stroke="#ccc"/><path d="M630,375.6655893964291C945,375.6655893964291,945,471.2890319857094,1260,471.2890319857094" fill="none" stroke="#ccc"/><path d="M630,541.6019607263743C945,541.6019607263743,945,541.6019607263743,1260,541.6019607263743" fill="none" stroke="#ccc"/></g><g id="nodes"><g transform="translate(0,334.3693575204276)"><circle fill="#ccc" r="56.09077342476192"/><text text-anchor="end" dominant-baseline="text-before-edge" transform="translate(0,0)"><tspan x="-58.09077342476192" y="0" dy="0" style="font-family: Arial, sans-serif; font-size: 10px; fill: black; font-weight: normal;"/></text></g><g id="Formación Académica" transform="translate(630,127.13675431448097)"><circle fill="#ff7f0e" r="40.55231167005234"/><text text-anchor="end" dominant-baseline="text-before-edge" transform="translate(0,-5.59375)"><tspan x="-42.55231167005234" y="0" dy="0" style="font-family: Arial, sans-serif; font-size: 10px; fill: black; font-weight: normal;">Formación Académica</tspan></text></g><g id="Experiencias y Ocio" transform="translate(630,375.6655893964291)"><circle fill="#1f77b4" r="29.807976829966346"/><text text-anchor="end" dominant-baseline="text-before-edge" transform="translate(0,-5.59375)"><tspan x="-31.807976829966346" y="0" dy="0" style="font-family: Arial, sans-serif; font-size: 10px; fill: black; font-weight: normal;">Experiencias y Ocio</tspan></text></g><g id="Formación Profesional" transform="translate(630,541.6019607263743)"><circle fill="#2ca02c" r="24.76225754867887"/><text text-anchor="end" dominant-baseline="text-before-edge" transform="translate(0,-5.59375)"><tspan x="-26.76225754867887" y="0" dy="0" style="font-family: Arial, sans-serif; font-size: 10px; fill: black; font-weight: normal;">Formación Profesional</tspan></text></g><g id="Pellegrini" transform="translate(1260,48.39803927362581)"><circle fill="#ff7f0e" r="35"/><text text-anchor="start" dominant-baseline="text-before-edge" transform="translate(0,-5.59375)"><tspan x="37" y="0" dy="0" style="font-family: Arial, sans-serif; font-size: 10px; fill: black; font-weight: bold;">Pellegrini</tspan></text></g><g id="UBA - FCE" transform="translate(1260,138.60134902576488)"><circle fill="#ff7f0e" r="17.67444926011704"/><text text-anchor="start" dominant-baseline="text-before-edge" transform="translate(0,-5.59375)"><tspan x="19.67444926011704" y="0" dy="0" style="font-family: Arial, sans-serif; font-size: 10px; fill: black; font-weight: bold;">UBA - FCE</tspan></text></g><g id="ITBA" transform="translate(1260,205.87546935533612)"><circle fill="#ff7f0e" r="10.34909779336402"/><text text-anchor="start" dominant-baseline="text-before-edge" transform="translate(0,-5.59375)"><tspan x="12.34909779336402" y="0" dy="0" style="font-family: Arial, sans-serif; font-size: 10px; fill: black; font-weight: bold;">ITBA</tspan></text></g><g id="Viajes" transform="translate(1260,280.04214680714875)"><circle fill="#1f77b4" r="25.084556457661268"/><text text-anchor="start" dominant-baseline="text-before-edge" transform="translate(0,-5.59375)"><tspan x="27.084556457661268" y="0" dy="0" style="font-family: Arial, sans-serif; font-size: 10px; fill: black; font-weight: bold;">Viajes</tspan></text></g><g id="Deportes" transform="translate(1260,355.69801456069746)"><circle fill="#1f77b4" r="11.950108793736957"/><text text-anchor="start" dominant-baseline="text-before-edge" transform="translate(0,-5.59375)"><tspan x="13.950108793736957" y="0" dy="0" style="font-family: Arial, sans-serif; font-size: 10px; fill: black; font-weight: bold;">Deportes</tspan></text></g><g id="Libros" transform="translate(1260,416.01509861608093)"><circle fill="#1f77b4" r="8.594010283357553"/><text text-anchor="start" dominant-baseline="text-before-edge" transform="translate(0,-5.59375)"><tspan x="10.594010283357553" y="0" dy="0" style="font-family: Arial, sans-serif; font-size: 10px; fill: black; font-weight: bold;">Libros</tspan></text></g><g id="Museos" transform="translate(1260,471.2890319857094)"><circle fill="#1f77b4" r="6.52827673169652"/><text text-anchor="start" dominant-baseline="text-before-edge" transform="translate(0,-5.59375)"><tspan x="8.52827673169652" y="0" dy="0" style="font-family: Arial, sans-serif; font-size: 10px; fill: black; font-weight: bold;">Museos</tspan></text></g><g id="FDI" transform="translate(1260,541.6019607263743)"><circle fill="#2ca02c" r="24.76225754867887"/><text text-anchor="start" dominant-baseline="text-before-edge" transform="translate(0,-5.59375)"><tspan x="26.76225754867887" y="0" dy="0" style="font-family: Arial, sans-serif; font-size: 10px; fill: black; font-weight: bold;">FDI</tspan></text></g></g></g></svg>